bicep_curl
version=1
nRows=304
nColumns=3
inDegrees=yes

# SIMM Motion File Header:
name bicep_curl
datacolumns 3
datarows 304
otherdata 1
range 0.0000 0.3030
endheader
time	/jointset/r_shoulder/r_shoulder_elev/value	/jointset/r_elbow/r_elbow_flex/value
0.0000	0.0000	112.0000
0.0010	0.0000	112.0708
0.0020	0.0000	112.1417
0.0030	0.0000	112.2125
0.0040	0.0000	112.2834
0.0050	0.0000	112.3542
0.0060	0.0000	112.4251
0.0070	0.0000	112.4959
0.0080	0.0000	112.5667
0.0090	0.0000	112.6376
0.0100	0.0000	112.7084
0.0110	0.0000	112.7793
0.0120	0.0000	112.8501
0.0130	0.0000	112.9210
0.0140	0.0000	112.9918
0.0150	0.0000	113.0627
0.0160	0.0000	113.1335
0.0170	0.0000	113.2043
0.0180	0.0000	113.2752
0.0190	0.0000	113.3460
0.0200	0.0000	113.4169
0.0210	0.0000	113.4877
0.0220	0.0000	113.5586
0.0230	0.0000	113.6294
0.0240	0.0000	113.7002
0.0250	0.0000	113.7711
0.0260	0.0000	113.8419
0.0270	0.0000	113.9128
0.0280	0.0000	113.9836
0.0290	0.0000	114.0545
0.0300	0.0000	114.1253
0.0310	0.0000	114.1961
0.0320	0.0000	114.2670
0.0330	0.0000	114.3378
0.0340	0.0000	114.4087
0.0350	0.0000	114.4795
0.0360	0.0000	114.5504
0.0370	0.0000	114.6212
0.0380	0.0000	114.6920
0.0390	0.0000	114.7629
0.0400	0.0000	114.8337
0.0410	0.0000	114.9046
0.0420	0.0000	114.9754
0.0430	0.0000	115.0463
0.0440	0.0000	115.1171
0.0450	0.0000	115.1880
0.0460	0.0000	115.2588
0.0470	0.0000	115.3296
0.0480	0.0000	115.4005
0.0490	0.0000	115.4713
0.0500	0.0000	115.5422
0.0510	0.0000	115.6130
0.0520	0.0000	115.6839
0.0530	0.0000	115.7547
0.0540	0.0000	115.8255
0.0550	0.0000	115.8964
0.0560	0.0000	115.9672
0.0570	0.0000	116.0381
0.0580	0.0000	116.1089
0.0590	0.0000	116.1798
0.0600	0.0000	116.2506
0.0610	0.0000	116.3214
0.0620	0.0000	116.3923
0.0630	0.0000	116.4631
0.0640	0.0000	116.5340
0.0650	0.0000	116.6048
0.0660	0.0000	116.6757
0.0670	0.0000	116.7465
0.0680	0.0000	116.8173
0.0690	0.0000	116.8882
0.0700	0.0000	116.9590
0.0710	0.0000	117.0299
0.0720	0.0000	117.1007
0.0730	0.0000	117.1716
0.0740	0.0000	117.2424
0.0750	0.0000	117.3133
0.0760	0.0000	117.3841
0.0770	0.0000	117.4549
0.0780	0.0000	117.5258
0.0790	0.0000	117.5966
0.0800	0.0000	117.6675
0.0810	0.0000	117.7383
0.0820	0.0000	117.8092
0.0830	0.0000	117.8800
0.0840	0.0000	117.9508
0.0850	0.0000	118.0217
0.0860	0.0000	118.0925
0.0870	0.0000	118.1634
0.0880	0.0000	118.2342
0.0890	0.0000	118.3051
0.0900	0.0000	118.3759
0.0910	0.0000	118.4467
0.0920	0.0000	118.5176
0.0930	0.0000	118.5884
0.0940	0.0000	118.6593
0.0950	0.0000	118.7301
0.0960	0.0000	118.8010
0.0970	0.0000	118.8718
0.0980	0.0000	118.9427
0.0990	0.0000	119.0135
0.1000	0.0000	119.0843
0.1010	0.0000	119.1552
0.1020	0.0000	119.2260
0.1030	0.0000	119.2969
0.1040	0.0000	119.3677
0.1050	0.0000	119.4386
0.1060	0.0000	119.5094
0.1070	0.0000	119.5802
0.1080	0.0000	119.6511
0.1090	0.0000	119.7219
0.1100	0.0000	119.7928
0.1110	0.0000	119.8636
0.1120	0.0000	119.9345
0.1130	0.0000	120.0053
0.1140	0.0000	120.0761
0.1150	0.0000	120.1470
0.1160	0.0000	120.2178
0.1170	0.0000	120.2887
0.1180	0.0000	120.3595
0.1190	0.0000	120.4304
0.1200	0.0000	120.5012
0.1210	0.0000	120.5720
0.1220	0.0000	120.6429
0.1230	0.0000	120.7137
0.1240	0.0000	120.7846
0.1250	0.0000	120.8554
0.1260	0.0000	120.9263
0.1270	0.0000	120.9971
0.1280	0.0000	121.0680
0.1290	0.0000	121.1388
0.1300	0.0000	121.2096
0.1310	0.0000	121.2805
0.1320	0.0000	121.3513
0.1330	0.0000	121.4222
0.1340	0.0000	121.4930
0.1350	0.0000	121.5639
0.1360	0.0000	121.6347
0.1370	0.0000	121.7055
0.1380	0.0000	121.7764
0.1390	0.0000	121.8472
0.1400	0.0000	121.9181
0.1410	0.0000	121.9889
0.1420	0.0000	122.0598
0.1430	0.0000	122.1306
0.1440	0.0000	122.2014
0.1450	0.0000	122.2723
0.1460	0.0000	122.3431
0.1470	0.0000	122.4140
0.1480	0.0000	122.4848
0.1490	0.0000	122.5557
0.1500	0.0000	122.6265
0.1510	0.0000	122.6973
0.1520	0.0000	122.7682
0.1530	0.0000	122.8390
0.1540	0.0000	122.9099
0.1550	0.0000	122.9807
0.1560	0.0000	123.0516
0.1570	0.0000	123.1224
0.1580	0.0000	123.1933
0.1590	0.0000	123.2641
0.1600	0.0000	123.3349
0.1610	0.0000	123.4058
0.1620	0.0000	123.4766
0.1630	0.0000	123.5475
0.1640	0.0000	123.6183
0.1650	0.0000	123.6892
0.1660	0.0000	123.7600
0.1670	0.0000	123.7600
0.1680	0.0000	123.7600
0.1690	0.0000	123.7600
0.1700	0.0000	123.7600
0.1710	0.0000	123.7600
0.1720	0.0000	123.7600
0.1730	0.0000	123.7600
0.1740	0.0000	123.7600
0.1750	0.0000	123.7600
0.1760	0.0000	123.7600
0.1770	0.0000	123.7600
0.1780	0.0000	123.7600
0.1790	0.0000	123.7600
0.1800	0.0000	123.7600
0.1810	0.0000	123.7600
0.1820	0.0000	123.7600
0.1830	0.0000	123.7600
0.1840	0.0000	123.7600
0.1850	0.0000	123.7600
0.1860	0.0000	123.7600
0.1870	0.0000	123.7600
0.1880	0.0000	123.7600
0.1890	0.0000	123.7600
0.1900	0.0000	123.7600
0.1910	0.0000	123.7600
0.1920	0.0000	123.7600
0.1930	0.0000	123.7600
0.1940	0.0000	123.7600
0.1950	0.0000	123.7600
0.1960	0.0000	123.7600
0.1970	0.0000	123.7600
0.1980	0.0000	123.7600
0.1990	0.0000	123.7600
0.2000	0.0000	123.7600
0.2010	0.0000	123.7600
0.2020	0.0000	123.7600
0.2030	0.0000	123.7600
0.2040	0.0000	123.7600
0.2050	0.0000	123.7600
0.2060	0.0000	123.7600
0.2070	0.0000	123.7600
0.2080	0.0000	123.7600
0.2090	0.0000	123.7600
0.2100	0.0000	123.7600
0.2110	0.0000	123.7600
0.2120	0.0000	123.7600
0.2130	0.0000	123.7600
0.2140	0.0000	123.7600
0.2150	0.0000	123.7600
0.2160	0.0000	123.7600
0.2170	0.0000	123.7600
0.2180	0.0000	123.7600
0.2190	0.0000	123.7600
0.2200	0.0000	123.7600
0.2210	0.0000	123.7600
0.2220	0.0000	123.7600
0.2230	0.0000	123.7600
0.2240	0.0000	123.7600
0.2250	0.0000	123.7600
0.2260	0.0000	123.7600
0.2270	0.0000	123.7600
0.2280	0.0000	123.7600
0.2290	0.0000	123.7600
0.2300	0.0000	123.7600
0.2310	0.0000	123.7600
0.2320	0.0000	123.7600
0.2330	0.0000	123.7600
0.2340	0.0000	123.7600
0.2350	0.0000	123.7600
0.2360	0.0000	123.7600
0.2370	0.0000	123.7600
0.2380	0.0000	123.7600
0.2390	0.0000	123.7600
0.2400	0.0000	123.7600
0.2410	0.0000	123.7600
0.2420	0.0000	123.7600
0.2430	0.0000	123.7600
0.2440	0.0000	123.7600
0.2450	0.0000	123.7600
0.2460	0.0000	123.7600
0.2470	0.0000	123.7600
0.2480	0.0000	123.7600
0.2490	0.0000	123.7600
0.2500	0.0000	123.7600
0.2510	0.0000	123.7600
0.2520	0.0000	123.7600
0.2530	0.0000	123.7600
0.2540	0.0000	123.7600
0.2550	0.0000	123.7600
0.2560	0.0000	123.7600
0.2570	0.0000	123.7600
0.2580	0.0000	123.7600
0.2590	0.0000	123.7600
0.2600	0.0000	123.7600
0.2610	0.0000	123.7600
0.2620	0.0000	123.7600
0.2630	0.0000	123.7600
0.2640	0.0000	123.7600
0.2650	0.0000	123.7600
0.2660	0.0000	123.7600
0.2670	0.0000	123.7600
0.2680	0.0000	123.7600
0.2690	0.0000	123.7600
0.2700	0.0000	123.7600
0.2710	0.0000	123.7600
0.2720	0.0000	123.7600
0.2730	0.0000	123.7600
0.2740	0.0000	123.7600
0.2750	0.0000	123.7600
0.2760	0.0000	123.7600
0.2770	0.0000	123.7600
0.2780	0.0000	123.7600
0.2790	0.0000	123.7600
0.2800	0.0000	123.7600
0.2810	0.0000	123.7600
0.2820	0.0000	123.7600
0.2830	0.0000	123.7600
0.2840	0.0000	123.7600
0.2850	0.0000	123.7600
0.2860	0.0000	123.7600
0.2870	0.0000	123.7600
0.2880	0.0000	123.7600
0.2890	0.0000	123.7600
0.2900	0.0000	123.7600
0.2910	0.0000	123.7600
0.2920	0.0000	123.7600
0.2930	0.0000	123.7600
0.2940	0.0000	123.7600
0.2950	0.0000	123.7600
0.2960	0.0000	123.7600
0.2970	0.0000	123.7600
0.2980	0.0000	123.7600
0.2990	0.0000	123.7600
0.3000	0.0000	123.7600
0.3010	0.0000	123.7600
0.3020	0.0000	123.7600
0.3030	0.0000	123.7600
